PathFileType	4	(X/Y/Z)	70_1_44_p0_0-302_filt_butterworth.trc
DataRate	CameraRate	NumFrames	NumMarkers	Units	OrigDataRate	OrigDataStartFrame	OrigNumFrames
47.0	47.0	4	27	m	47.0	0	302
Frame#	Time	RHip			RKnee			RAnkle			RBigToe			RSmallToe			RHeel			LHip			LKnee			LAnkle			LBigToe			LSmallToe			LHeel			Neck			Head			Nose			RShoulder			RElbow			RWrist			RThumb			RIndex			RPinky			LShoulder			LElbow			LWrist			LThumb			LIndex			LPinky			
		X1	Y1	Z1	X2	Y2	Z2	X3	Y3	Z3	X4	Y4	Z4	X5	Y5	Z5	X6	Y6	Z6	X7	Y7	Z7	X8	Y8	Z8	X9	Y9	Z9	X10	Y10	Z10	X11	Y11	Z11	X12	Y12	Z12	X13	Y13	Z13	X14	Y14	Z14	X15	Y15	Z15	X16	Y16	Z16	X17	Y17	Z17	X18	Y18	Z18	X19	Y19	Z19	X20	Y20	Z20	X21	Y21	Z21	X22	Y22	Z22	X23	Y23	Z23	X24	Y24	Z24	X25	Y25	Z25	X26	Y26	Z26	X27	Y27	Z27	
0	0.0	0.3712271994703809	0.8028793500482949	0.6518651543143253	0.37396500057212273	0.37709728131244574	0.7616359785016897	0.36961054001070676	-0.04418146201230699	0.8070423490702515	0.3187913948926649	-0.13316087189732057	0.6466358966205509	0.3838031064604749	-0.11099831692940196	0.641131621378399	0.353961471299618	-0.14929843865420472	0.9167352756232352	0.1337128133070061	0.7870833802666708	0.7547960209571376	0.16672321346498847	0.3585563984477586	0.7872659962317098	0.17079355856646358	-0.05323435863236252	0.8394368288785097	0.1713026301345516	-0.10970779957764344	0.6484772388022358	0.11561990517697007	-0.10944045058976926	0.7090778098965679	0.19448666023886776	-0.09861348380760131	0.8771689405419896	0.2278866448127582	1.4549527486792333	0.6795081591154333	0.20943515808584814	1.723477711914977	0.6054833661347763	0.1977990970115123	1.579256606890425	0.5303640861629121	0.41915240277540833	1.3603172278175082	0.6736769462703538	0.4776555953661281	1.0666309206841063	0.6378050680706433	0.44934345846430346	0.7960248334196312	0.5602111412625794	0.3824277340859105	0.6847604578847829	0.5205279635332758	0.40085392607934145	0.654716418756188	0.5251347285424042	0.4450200102668007	0.6483553648109671	0.5599993739682974	0.06240242486084172	1.3433948990434452	0.732984229001109	0.015066509933238279	1.0362827115186914	0.7691640612384523	0.015456092743109997	0.7513014853317078	0.7355875893403707	0.06216718254129419	0.6573526853222286	0.660265589803699	0.042151179335928185	0.636887816720979	0.6477657742332121	0.014081822056000557	0.6166320618725559	0.7505578018039126	
1	0.0212765957446808	0.37126136616826977	0.8004153225871554	0.6530180225547413	0.3730574208399677	0.375982065469883	0.7612919566282059	0.3709756683692481	-0.04483266059649703	0.8095856346621895	0.3166117316762657	-0.13071324596956335	0.6420219091802567	0.3847303276384984	-0.10972545311214904	0.6421037131698304	0.35504005715819775	-0.14841828057730405	0.918562030899773	0.13315443287873566	0.7874128029892136	0.7543527305796573	0.16509026005074223	0.35822826857241896	0.784504135256815	0.17157136223913788	-0.051200720694684135	0.8366541458641191	0.16997282395168065	-0.10950579947488046	0.6481179983055834	0.11561434621134097	-0.10956059561267188	0.7094174654487533	0.19542399497140822	-0.0994344073194742	0.880097139311419	0.2290758628849423	1.4570360196114072	0.6727162281416088	0.2111851337117075	1.7229836567200258	0.6101707712599524	0.19861215892051876	1.5810116352070305	0.535470513296078	0.4186109732399791	1.3604875210904352	0.6786308878942857	0.48183027177009496	1.06532461107549	0.6350926021312541	0.45025608654977994	0.7936771405637335	0.5638328240885627	0.38307920080517993	0.6778442172690206	0.5451794496767572	0.40003254180789233	0.6528211145251336	0.5293088818796665	0.4463612813369033	0.6451752632010354	0.5542955120011368	0.06443761198120751	1.343263179216141	0.7314294521526855	0.014703147963330295	1.040282625198151	0.7688195738523295	0.0180471249888007	0.7532292547464072	0.7283064770179709	0.06462375139808879	0.6560480914982743	0.660910380377849	0.04306357771998889	0.6362734222632296	0.650018690890186	0.014259443447215515	0.6174733228150296	0.7488582921057125	
2	0.0425531914893617	0.37122762535232645	0.7984243703519608	0.6537984083960979	0.37220088795305034	0.37493662114400705	0.7609897657139679	0.3721219303513215	-0.045428730467259815	0.8116896174183719	0.3149592961676827	-0.12891599894182387	0.6386841958438126	0.38504089983360174	-0.10856591622281771	0.6421554505609578	0.35594031278359456	-0.1477444220608564	0.9200858300220234	0.132603052605938	0.7877656497208463	0.7533875965909478	0.16374054262947377	0.35802810545584796	0.7821480442649161	0.17218082756724395	-0.04943084416657996	0.8343158651644135	0.16875933630300372	-0.10931177113238677	0.647804551839871	0.11561390729585544	-0.10961369399672781	0.7095455924262732	0.19624213321508124	-0.10010920539618753	0.8826836620252997	0.2298300421631519	1.4583397775870504	0.6684737052935035	0.2128352268937337	1.7230473173372183	0.6135027896061437	0.19961789266469301	1.5821242178816772	0.5385554157847459	0.4182129744815809	1.3603300346677518	0.6822823780545755	0.4852587657231325	1.0643412871552167	0.6340602794337318	0.4511259450741099	0.7919418170153818	0.5663385122183855	0.38303118567345695	0.673324714520258	0.5591414982779151	0.39981765297310135	0.6508689190900787	0.5327712841138406	0.44693899180522506	0.642890105438955	0.5507765301541224	0.06557396262837208	1.3436037854337872	0.7290133307421405	0.014463433178965776	1.0428053797982726	0.7685707889188128	0.01942967543007841	0.7543295201501318	0.7242043806047113	0.06625518084322744	0.655051310551762	0.6617822886558621	0.043498139186193885	0.6358923947167581	0.6512092618581601	0.013497766332342322	0.6188407323837651	0.7461235426716073	
3	0.0638297872340425	0.37113250842601203	0.7968748320876865	0.6542510832761537	0.3713943983429565	0.37396992265368406	0.7607267741779428	0.373064928208359	-0.045968645326001506	0.8133880119718622	0.3137623873727138	-0.12767483280960526	0.6364219047443149	0.38488586735253627	-0.1075524734150646	0.6415317061094354	0.3566764348380132	-0.1472616012754667	0.9213298089135192	0.1320655915532189	0.7881384090089303	0.7519794443179347	0.16265008246201954	0.35794846191051216	0.7801686813031643	0.17263935874841127	-0.04790474883709353	0.8323882358265191	0.16771785538538128	-0.10913636523119699	0.6475463022597143	0.11561660794803552	-0.1096180290045008	0.7095196188405641	0.19695213511037696	-0.1006481558941639	0.884950832374314	0.23023193263812214	1.4590183095292544	0.666280657291133	0.21434808322027976	1.723533731670769	0.6156960290325938	0.2007187260461335	1.5827194706867926	0.5400284881560875	0.4179376437320916	1.359940017863402	0.6848200983565487	0.48798032588605433	1.063614006108379	0.6344040427050314	0.45196188234321943	0.7907498412646542	0.5678213592539059	0.3827480555719786	0.6706232810318021	0.5645590152723023	0.4002798969386474	0.6489320402964945	0.5355438310283749	0.4470472357551963	0.6413413964647281	0.5490083657771538	0.06600468717545879	1.3442845798625542	0.7260786694801198	0.014325717314505337	1.0441711873019042	0.7684062560036891	0.019807354616800867	0.7548345437283371	0.7223707759789957	0.06713861328430751	0.6544082648233099	0.6626598684028373	0.04343199100739802	0.6358656113155519	0.6511391443149832	0.012035125362099828	0.6206161931770554	0.742408122902787	
